<mxfile host="65bd71144e">
    <diagram id="lfgaFwsMHlEJmFyiPrBh" name="ForeignKey">
        <mxGraphModel dx="2158" dy="1416" grid="1" gridSize="10" guides="1" tooltips="1" connect="1" arrows="1" fold="1" page="1" pageScale="1" pageWidth="850" pageHeight="1100" math="0" shadow="0">
            <root>
                <mxCell id="0"/>
                <mxCell id="1" parent="0"/>
                <mxCell id="7" value="" style="ellipse;whiteSpace=wrap;html=1;" parent="1" vertex="1">
                    <mxGeometry x="90" y="320" width="80" height="80" as="geometry"/>
                </mxCell>
                <mxCell id="17" style="edgeStyle=none;html=1;exitX=0.5;exitY=0;exitDx=0;exitDy=0;" parent="1" source="14" target="7" edge="1">
                    <mxGeometry relative="1" as="geometry"/>
                </mxCell>
                <mxCell id="14" value="" style="shape=hexagon;perimeter=hexagonPerimeter2;whiteSpace=wrap;html=1;fixedSize=1;" parent="1" vertex="1">
                    <mxGeometry x="85" y="440" width="90" height="80" as="geometry"/>
                </mxCell>
                <mxCell id="18" value="x.Base.Id == 123" style="text;html=1;align=center;verticalAlign=middle;resizable=0;points=[];autosize=1;strokeColor=none;fillColor=none;fontFamily=Lucida Console;" parent="1" vertex="1">
                    <mxGeometry x="175" y="320" width="140" height="30" as="geometry"/>
                </mxCell>
                <mxCell id="19" value="Root" style="text;html=1;align=center;verticalAlign=middle;resizable=0;points=[];autosize=1;strokeColor=none;fillColor=none;fontFamily=Lucida Console;" parent="1" vertex="1">
                    <mxGeometry x="105" y="345" width="50" height="30" as="geometry"/>
                </mxCell>
                <mxCell id="20" value="Base" style="text;html=1;align=center;verticalAlign=middle;resizable=0;points=[];autosize=1;strokeColor=none;fillColor=none;fontFamily=Lucida Console;" parent="1" vertex="1">
                    <mxGeometry x="105" y="465" width="50" height="30" as="geometry"/>
                </mxCell>
                <mxCell id="22" style="edgeStyle=none;html=1;exitX=0.5;exitY=0;exitDx=0;exitDy=0;fontFamily=Lucida Console;" parent="1" source="21" target="14" edge="1">
                    <mxGeometry relative="1" as="geometry"/>
                </mxCell>
                <mxCell id="21" value="Id" style="whiteSpace=wrap;html=1;fontFamily=Lucida Console;" parent="1" vertex="1">
                    <mxGeometry x="95" y="560" width="70" height="40" as="geometry"/>
                </mxCell>
                <mxCell id="23" value="x.Base is referenced by foreignKey on x called 'myCustomBaseId'" style="text;html=1;align=center;verticalAlign=middle;resizable=0;points=[];autosize=1;strokeColor=none;fillColor=none;fontFamily=Lucida Console;" parent="1" vertex="1">
                    <mxGeometry x="300" y="400" width="480" height="30" as="geometry"/>
                </mxCell>
                <mxCell id="24" value="Query:&lt;br&gt;myCustomBaseId eq '123'" style="text;html=1;align=left;verticalAlign=middle;resizable=0;points=[];autosize=1;strokeColor=none;fillColor=none;fontFamily=Lucida Console;" parent="1" vertex="1">
                    <mxGeometry x="310" y="440" width="190" height="40" as="geometry"/>
                </mxCell>
            </root>
        </mxGraphModel>
    </diagram>
    <diagram id="5GKqN1gsL72UZF9i3ku2" name="PartitionKeyReference">
        <mxGraphModel dx="1256" dy="1416" grid="1" gridSize="10" guides="1" tooltips="1" connect="1" arrows="1" fold="1" page="1" pageScale="1" pageWidth="850" pageHeight="1100" math="0" shadow="0">
            <root>
                <mxCell id="0"/>
                <mxCell id="1" parent="0"/>
                <mxCell id="utAmOtUG1EmuipoA1jcR-1" value="" style="ellipse;whiteSpace=wrap;html=1;" vertex="1" parent="1">
                    <mxGeometry x="90" y="320" width="80" height="80" as="geometry"/>
                </mxCell>
                <mxCell id="utAmOtUG1EmuipoA1jcR-2" style="edgeStyle=none;html=1;exitX=0.5;exitY=0;exitDx=0;exitDy=0;" edge="1" parent="1" source="utAmOtUG1EmuipoA1jcR-3" target="utAmOtUG1EmuipoA1jcR-1">
                    <mxGeometry relative="1" as="geometry"/>
                </mxCell>
                <mxCell id="utAmOtUG1EmuipoA1jcR-3" value="" style="shape=hexagon;perimeter=hexagonPerimeter2;whiteSpace=wrap;html=1;fixedSize=1;" vertex="1" parent="1">
                    <mxGeometry x="85" y="440" width="90" height="80" as="geometry"/>
                </mxCell>
                <mxCell id="utAmOtUG1EmuipoA1jcR-4" value="x.Base.Id == 123" style="text;html=1;align=left;verticalAlign=middle;resizable=0;points=[];autosize=1;strokeColor=none;fillColor=none;fontFamily=Lucida Console;" vertex="1" parent="1">
                    <mxGeometry x="200" y="320" width="140" height="30" as="geometry"/>
                </mxCell>
                <mxCell id="utAmOtUG1EmuipoA1jcR-5" value="Root" style="text;html=1;align=center;verticalAlign=middle;resizable=0;points=[];autosize=1;strokeColor=none;fillColor=none;fontFamily=Lucida Console;" vertex="1" parent="1">
                    <mxGeometry x="105" y="345" width="50" height="30" as="geometry"/>
                </mxCell>
                <mxCell id="utAmOtUG1EmuipoA1jcR-6" value="Base" style="text;html=1;align=center;verticalAlign=middle;resizable=0;points=[];autosize=1;strokeColor=none;fillColor=none;fontFamily=Lucida Console;" vertex="1" parent="1">
                    <mxGeometry x="105" y="465" width="50" height="30" as="geometry"/>
                </mxCell>
                <mxCell id="utAmOtUG1EmuipoA1jcR-7" style="edgeStyle=none;html=1;exitX=0.5;exitY=0;exitDx=0;exitDy=0;fontFamily=Lucida Console;" edge="1" parent="1" source="utAmOtUG1EmuipoA1jcR-8" target="utAmOtUG1EmuipoA1jcR-3">
                    <mxGeometry relative="1" as="geometry"/>
                </mxCell>
                <mxCell id="utAmOtUG1EmuipoA1jcR-8" value="Id" style="whiteSpace=wrap;html=1;fontFamily=Lucida Console;" vertex="1" parent="1">
                    <mxGeometry x="95" y="560" width="70" height="40" as="geometry"/>
                </mxCell>
                <mxCell id="utAmOtUG1EmuipoA1jcR-9" value="x.Base is referenced by PartitionKey in the 'Base' table" style="text;html=1;align=left;verticalAlign=middle;resizable=0;points=[];autosize=1;strokeColor=none;fillColor=none;fontFamily=Lucida Console;" vertex="1" parent="1">
                    <mxGeometry x="240" y="400" width="430" height="30" as="geometry"/>
                </mxCell>
                <mxCell id="utAmOtUG1EmuipoA1jcR-10" value="Queries:&lt;br&gt;&amp;nbsp;- Base&lt;br&gt;RowKey eq '123' // Use partitionKey from returned objects for Root Query&lt;br&gt;&amp;nbsp;- Root&lt;br&gt;RowKey eq '{Base.PartitionKey}'" style="text;html=1;align=left;verticalAlign=middle;resizable=0;points=[];autosize=1;strokeColor=none;fillColor=none;fontFamily=Lucida Console;" vertex="1" parent="1">
                    <mxGeometry x="240" y="440" width="540" height="90" as="geometry"/>
                </mxCell>
            </root>
        </mxGraphModel>
    </diagram>
    <diagram id="4ZJsywX-vrcdmNvMc1E_" name="Page-3">
        <mxGraphModel dx="1256" dy="1416" grid="1" gridSize="10" guides="1" tooltips="1" connect="1" arrows="1" fold="1" page="1" pageScale="1" pageWidth="850" pageHeight="1100" math="0" shadow="0">
            <root>
                <mxCell id="0"/>
                <mxCell id="1" parent="0"/>
                <mxCell id="sk1XfEE_pl9B1p2Ldfn9-1" value="" style="ellipse;whiteSpace=wrap;html=1;" vertex="1" parent="1">
                    <mxGeometry x="400" y="200" width="80" height="80" as="geometry"/>
                </mxCell>
                <mxCell id="sk1XfEE_pl9B1p2Ldfn9-7" style="edgeStyle=none;html=1;exitX=0.5;exitY=0;exitDx=0;exitDy=0;entryX=0;entryY=1;entryDx=0;entryDy=0;" edge="1" parent="1" source="sk1XfEE_pl9B1p2Ldfn9-2" target="sk1XfEE_pl9B1p2Ldfn9-1">
                    <mxGeometry relative="1" as="geometry"/>
                </mxCell>
                <mxCell id="sk1XfEE_pl9B1p2Ldfn9-2" value="" style="ellipse;whiteSpace=wrap;html=1;" vertex="1" parent="1">
                    <mxGeometry x="280" y="320" width="80" height="80" as="geometry"/>
                </mxCell>
                <mxCell id="sk1XfEE_pl9B1p2Ldfn9-6" style="edgeStyle=none;html=1;exitX=0.5;exitY=0;exitDx=0;exitDy=0;entryX=1;entryY=1;entryDx=0;entryDy=0;" edge="1" parent="1" source="sk1XfEE_pl9B1p2Ldfn9-3" target="sk1XfEE_pl9B1p2Ldfn9-1">
                    <mxGeometry relative="1" as="geometry"/>
                </mxCell>
                <mxCell id="sk1XfEE_pl9B1p2Ldfn9-3" value="" style="ellipse;whiteSpace=wrap;html=1;" vertex="1" parent="1">
                    <mxGeometry x="520" y="320" width="80" height="80" as="geometry"/>
                </mxCell>
                <mxCell id="sk1XfEE_pl9B1p2Ldfn9-20" style="edgeStyle=none;html=1;exitX=0.5;exitY=0;exitDx=0;exitDy=0;entryX=0;entryY=1;entryDx=0;entryDy=0;" edge="1" parent="1" source="sk1XfEE_pl9B1p2Ldfn9-9" target="sk1XfEE_pl9B1p2Ldfn9-3">
                    <mxGeometry relative="1" as="geometry"/>
                </mxCell>
                <mxCell id="sk1XfEE_pl9B1p2Ldfn9-9" value="" style="ellipse;whiteSpace=wrap;html=1;" vertex="1" parent="1">
                    <mxGeometry x="460" y="440" width="80" height="80" as="geometry"/>
                </mxCell>
                <mxCell id="sk1XfEE_pl9B1p2Ldfn9-21" style="edgeStyle=none;html=1;exitX=0.5;exitY=0;exitDx=0;exitDy=0;entryX=1;entryY=1;entryDx=0;entryDy=0;" edge="1" parent="1" source="sk1XfEE_pl9B1p2Ldfn9-11" target="sk1XfEE_pl9B1p2Ldfn9-3">
                    <mxGeometry relative="1" as="geometry"/>
                </mxCell>
                <mxCell id="sk1XfEE_pl9B1p2Ldfn9-11" value="" style="ellipse;whiteSpace=wrap;html=1;" vertex="1" parent="1">
                    <mxGeometry x="580" y="440" width="80" height="80" as="geometry"/>
                </mxCell>
                <mxCell id="sk1XfEE_pl9B1p2Ldfn9-19" style="edgeStyle=none;html=1;exitX=0.5;exitY=0;exitDx=0;exitDy=0;entryX=0;entryY=1;entryDx=0;entryDy=0;" edge="1" parent="1" source="sk1XfEE_pl9B1p2Ldfn9-16" target="sk1XfEE_pl9B1p2Ldfn9-2">
                    <mxGeometry relative="1" as="geometry"/>
                </mxCell>
                <mxCell id="sk1XfEE_pl9B1p2Ldfn9-16" value="" style="ellipse;whiteSpace=wrap;html=1;" vertex="1" parent="1">
                    <mxGeometry x="220" y="440" width="80" height="80" as="geometry"/>
                </mxCell>
                <mxCell id="sk1XfEE_pl9B1p2Ldfn9-18" style="edgeStyle=none;html=1;exitX=0.5;exitY=0;exitDx=0;exitDy=0;entryX=1;entryY=1;entryDx=0;entryDy=0;" edge="1" parent="1" source="sk1XfEE_pl9B1p2Ldfn9-17" target="sk1XfEE_pl9B1p2Ldfn9-2">
                    <mxGeometry relative="1" as="geometry"/>
                </mxCell>
                <mxCell id="sk1XfEE_pl9B1p2Ldfn9-17" value="" style="ellipse;whiteSpace=wrap;html=1;" vertex="1" parent="1">
                    <mxGeometry x="340" y="440" width="80" height="80" as="geometry"/>
                </mxCell>
            </root>
        </mxGraphModel>
    </diagram>
</mxfile>